<svg xmlns="http://www.w3.org/2000/svg" width="15" height="28" viewBox="0 0 15 28">
  <metadata><?xpacket begin="﻿" id="W5M0MpCehiHzreSzNTczkc9d"?>
<x:xmpmeta xmlns:x="adobe:ns:meta/" x:xmptk="Adobe XMP Core 5.6-c142 79.160924, 2017/07/13-01:06:39        ">
   <rdf:RDF xmlns:rdf="http://www.w3.org/1999/02/22-rdf-syntax-ns#">
      <rdf:Description rdf:about=""/>
   </rdf:RDF>
</x:xmpmeta>
                                                                                                    
                                                                                                    
                                                                                                    
                                                                                                    
                                                                                                    
                                                                                                    
                                                                                                    
                                                                                                    
                                                                                                    
                                                                                                    
                                                                                                    
                                                                                                    
                                                                                                    
                                                                                                    
                                                                                                    
                                                                                                    
                                                                                                    
                                                                                                    
                                                                                                    
                                                                                                    
                           
<?xpacket end="w"?></metadata>
<defs>
    <style>
      .cls-1 {
        fill: #30333c;
        fill-rule: evenodd;
      }
    </style>
  </defs>
  <path id="facebook" class="cls-1" d="M825.435,3058h-3.6c-4.042,0-6.654,2.7-6.654,6.89v3.18h-3.617a0.564,0.564,0,0,0-.566.57v4.6a0.564,0.564,0,0,0,.566.57h3.617v11.62a0.571,0.571,0,0,0,.566.57h4.719a0.571,0.571,0,0,0,.566-0.57v-11.62h4.229a0.564,0.564,0,0,0,.566-0.57l0-4.6a0.6,0.6,0,0,0-.166-0.41,0.587,0.587,0,0,0-.4-0.16h-4.231v-2.7c0-1.29.306-1.95,1.976-1.95h2.424a0.565,0.565,0,0,0,.566-0.57v-4.27A0.573,0.573,0,0,0,825.435,3058Z" transform="translate(-811 -3058)"/>
</svg>
