<svg xmlns="http://www.w3.org/2000/svg" width="76" height="79" viewBox="0 0 76 79">
  <metadata><?xpacket begin="﻿" id="W5M0MpCehiHzreSzNTczkc9d"?>
<x:xmpmeta xmlns:x="adobe:ns:meta/" x:xmptk="Adobe XMP Core 5.6-c142 79.160924, 2017/07/13-01:06:39        ">
   <rdf:RDF xmlns:rdf="http://www.w3.org/1999/02/22-rdf-syntax-ns#">
      <rdf:Description rdf:about=""/>
   </rdf:RDF>
</x:xmpmeta>
                                                                                                    
                                                                                                    
                                                                                                    
                                                                                                    
                                                                                                    
                                                                                                    
                                                                                                    
                                                                                                    
                                                                                                    
                                                                                                    
                                                                                                    
                                                                                                    
                                                                                                    
                                                                                                    
                                                                                                    
                                                                                                    
                                                                                                    
                                                                                                    
                                                                                                    
                                                                                                    
                           
<?xpacket end="w"?></metadata>
<defs>
    <style>
      .cls-1 {
        fill: #2a333c;
        fill-rule: evenodd;
      }
    </style>
  </defs>
  <path id="icon" class="cls-1" d="M1087.94,1025.1a17.555,17.555,0,0,0-23.61,6.82c-2.26,4.08-3.56,10.38-3.3,16.05a21.669,21.669,0,0,0,2.33,9.41,5.881,5.881,0,0,0-.45,6.07c-1.26,1.85-2.58,3.86-3.91,5.89-1.42-2.18-2.73-4.15-3.9-5.89,0.17-.33,1.84-3.4-0.46-6.07a21.669,21.669,0,0,0,2.33-9.41c0.26-5.67-1.04-11.97-3.3-16.05a17.558,17.558,0,0,0-23.61-6.82,17.03,17.03,0,0,0-7.46,7.85,1.174,1.174,0,0,0,.59,1.56,1.2,1.2,0,0,0,1.58-.58,14.688,14.688,0,0,1,6.43-6.77,15.208,15.208,0,0,1,17.11,1.87,35.663,35.663,0,0,1-11.02,9.1,36.192,36.192,0,0,1-13.74,4.21,14.67,14.67,0,0,1,.14-5.2,1.169,1.169,0,0,0-.92-1.39,1.2,1.2,0,0,0-1.41.91,16.914,16.914,0,0,0,1.77,11.68c2.26,4.08,6.94,8.56,11.93,11.41a22.581,22.581,0,0,0,9.3,3.16c0.89,2.74,3.05,3.46,4.94,3.65,1.3,2.96,2.92,6.46,4.8,10.43-1.71,2.69-3.23,5.12-4.36,6.95a1.185,1.185,0,0,0,.39,1.61,1.316,1.316,0,0,0,1.64-.39c2.87-4.62,8.2-13.11,12.72-19.81a13.348,13.348,0,0,0,1.74.94c-5.57,12.49-14.58,30.41-15.37,31.83a3.033,3.033,0,0,1-4.07,1.17,2.921,2.921,0,0,1-1.19-4c0.13-.23.69-1.19,1.86-3.12a1.16,1.16,0,0,0-.41-1.61,1.2,1.2,0,0,0-1.63.41c-0.99,1.63-1.73,2.86-1.91,3.19-2.23,4.01.88,6.51,2.14,7.19a5.425,5.425,0,0,0,7.3-2.11c0.41-.72,2.93-5.71,6.05-12.08,3.21,6.55,5.68,11.42,6.05,12.08a5.425,5.425,0,0,0,7.3,2.11,5.183,5.183,0,0,0,2.15-7.19c-0.47-.87-5.14-8.55-10.59-17.17,1.71-3.62,3.38-7.22,4.79-10.43,1.89-.19,3.86-0.67,4.95-3.66,7.92-.59,17.56-7.95,21.22-14.56A17,17,0,0,0,1087.94,1025.1Zm-60.57,25.21a17.308,17.308,0,0,1-3.27-5.67,38.649,38.649,0,0,0,14.33-4.45,38.206,38.206,0,0,0,11.56-9.46c1.7,1.58,2.65,4.5,3.07,5.78a35.394,35.394,0,0,1-11.37,9.54A35.89,35.89,0,0,1,1027.37,1050.31Zm2,2.16a38.916,38.916,0,0,0,13.46-4.36,38.107,38.107,0,0,0,11-8.79,33.916,33.916,0,0,1,.77,7.82,37.228,37.228,0,0,1-18.97,10.19A34.462,34.462,0,0,1,1029.37,1052.47Zm9.43,6.52a39.775,39.775,0,0,0,15.5-8.32c-0.62,4.05-2.21,7.5-5.05,9.02S1042.6,1060.67,1038.8,1058.99Zm8.23,3.84a9.688,9.688,0,0,0,6.1-3.28,3.612,3.612,0,0,1-1.58,4.28A3.566,3.566,0,0,1,1047.03,1062.83Zm8.57,11.78c-1.46-3.1-2.74-5.89-3.82-8.32a5.332,5.332,0,0,0,1.74-.94c1.22,1.82,2.59,3.89,4.07,6.17Zm16.8,20.68c0.96,1.76-.49,3.62-1.19,4a3.033,3.033,0,0,1-4.07-1.17c-0.41-.74-3.38-6.61-6.82-13.67,0.78-1.6,1.58-3.25,2.38-4.93C1067.79,1087.59,1072.01,1094.56,1072.4,1095.29Zm-5.94-31.46a3.456,3.456,0,0,1-1.58-4.28,9.631,9.631,0,0,0,6.09,3.28A3.553,3.553,0,0,1,1066.46,1063.83Zm6.17-3.24a8.11,8.11,0,0,1-3.88-.9c-2.6-1.4-4.38-4.62-5.06-9.04a39.18,39.18,0,0,0,7.29,5.04,40.113,40.113,0,0,0,8.24,3.31A16.655,16.655,0,0,1,1072.63,1060.59Zm9.76-3.25a37.3,37.3,0,0,1-19-10.21,33.89,33.89,0,0,1,.78-7.81,38.184,38.184,0,0,0,11.01,8.79,38.624,38.624,0,0,0,13.47,4.36A34.413,34.413,0,0,1,1082.39,1057.34Zm8.24-7.03a35.845,35.845,0,0,1-14.31-4.26,35.335,35.335,0,0,1-11.38-9.55c0.42-1.27,1.69-4.56,3.08-5.77a38.043,38.043,0,0,0,11.55,9.46,38.706,38.706,0,0,0,14.33,4.45A16.467,16.467,0,0,1,1090.63,1050.31Zm3.82-7.97a36.245,36.245,0,0,1-13.74-4.21,35.663,35.663,0,0,1-11.02-9.1,15.2,15.2,0,0,1,17.11-1.87A14.726,14.726,0,0,1,1094.45,1042.34Zm-44.91,44.18a1.2,1.2,0,0,0-1.64.39l-0.64,1.04a1.171,1.171,0,0,0,.41,1.61,1.188,1.188,0,0,0,1.63-.4l0.64-1.03A1.162,1.162,0,0,0,1049.54,1086.52Zm42.66-48.04a1.193,1.193,0,0,0-2.38.17c0.03,0.3.02,0.61,0.03,0.91a1.19,1.19,0,0,0,2.38.04A10.472,10.472,0,0,0,1092.2,1038.48Zm-0.83-3.64a12.329,12.329,0,0,0-2.42-3.86,1.206,1.206,0,0,0-1.68-.08,1.155,1.155,0,0,0-.08,1.66,10.2,10.2,0,0,1,1.96,3.13,1.236,1.236,0,0,0,1.54.67A1.174,1.174,0,0,0,1091.37,1034.84Z" transform="translate(-1021 -1023)"/>
</svg>
