<svg xmlns="http://www.w3.org/2000/svg" width="67" height="71" viewBox="0 0 67 71">
  <metadata><?xpacket begin="﻿" id="W5M0MpCehiHzreSzNTczkc9d"?>
<x:xmpmeta xmlns:x="adobe:ns:meta/" x:xmptk="Adobe XMP Core 5.6-c142 79.160924, 2017/07/13-01:06:39        ">
   <rdf:RDF xmlns:rdf="http://www.w3.org/1999/02/22-rdf-syntax-ns#">
      <rdf:Description rdf:about=""/>
   </rdf:RDF>
</x:xmpmeta>
                                                                                                    
                                                                                                    
                                                                                                    
                                                                                                    
                                                                                                    
                                                                                                    
                                                                                                    
                                                                                                    
                                                                                                    
                                                                                                    
                                                                                                    
                                                                                                    
                                                                                                    
                                                                                                    
                                                                                                    
                                                                                                    
                                                                                                    
                                                                                                    
                                                                                                    
                                                                                                    
                           
<?xpacket end="w"?></metadata>
<defs>
    <style>
      .cls-1 {
        fill: #2a333c;
        fill-rule: evenodd;
      }
    </style>
  </defs>
  <path id="icon" class="cls-1" d="M372.2,821.3a1.233,1.233,0,0,0-1.364.337L354.6,840.017l-15.263,17.277-15.17-13.954a0.256,0.256,0,0,0-.026-0.02c-0.022-.02-0.046-0.038-0.07-0.056s-0.05-.038-0.076-0.054l-0.073-.043c-0.029-.015-0.059-0.031-0.089-0.044l-0.03-.016c-0.015-.006-0.031-0.009-0.046-0.014-0.031-.012-0.062-0.023-0.094-0.032l-0.082-.019c-0.03-.006-0.061-0.012-0.092-0.016l-0.086-.008c-0.031,0-.061,0-0.092,0a0.844,0.844,0,0,0-.087,0c-0.03,0-.06.007-0.09,0.012s-0.058.01-.087,0.017-0.057.015-.086,0.024-0.058.02-.087,0.031c-0.013,0-.027.008-0.04,0.014s-0.027.015-.041,0.022-0.054.028-.081,0.043-0.052.032-.077,0.05-0.048.033-.07,0.051-0.05.042-.074,0.065-0.025.019-.036,0.031l-16.1,16.3a1.243,1.243,0,0,0-.359.874v20.2A1.24,1.24,0,0,0,307.238,882h64.526A1.239,1.239,0,0,0,373,880.758v-58.3A1.243,1.243,0,0,0,372.2,821.3Zm-34.009,58.216H324.571V864.991a1.237,1.237,0,1,0-2.473,0v14.524H308.474V861.07l13.624-13.8v12.75h0a1.237,1.237,0,1,0,2.473,0h0V847.078l13.623,12.531v19.907h0Zm32.334,0H356.763v-7.867h0a1.237,1.237,0,1,0-2.473,0h0v7.867H340.667V859.534l13.623-15.422v22.569h0a1.237,1.237,0,1,0,2.473,0h0V841.313l13.765-15.581v53.784Zm-5.539-67.253c0-.01,0-0.02,0-0.03s0-.044,0-0.066l-0.006-.059-0.009-.059c0-.021-0.008-0.041-0.013-0.062a0.562,0.562,0,0,0-.015-0.055q-0.007-.03-0.018-0.06c-0.006-.018-0.013-0.037-0.02-0.056s-0.015-.036-0.023-0.054-0.018-.038-0.028-0.057-0.017-.033-0.025-0.048-0.023-.039-0.035-0.057-0.02-.03-0.03-0.045-0.026-.036-0.039-0.053-0.024-.029-0.037-0.043-0.027-.032-0.041-0.047l-0.045-.044-0.026-.025-0.017-.014c-0.017-.015-0.034-0.028-0.051-0.041l-0.047-.036-0.05-.032c-0.017-.011-0.035-0.023-0.053-0.033l-0.049-.025-0.059-.029-0.05-.02-0.062-.023-0.051-.014-0.065-.017-0.051-.01-0.069-.011-0.05,0c-0.024,0-.048,0-0.072,0h-0.017L359.129,811H359.12a1.242,1.242,0,0,0-.007,2.484l1.9,0.012L339.34,838,324.169,824.04a1.232,1.232,0,0,0-1.712.041l-16.1,16.3a1.245,1.245,0,0,0,.007,1.756,1.231,1.231,0,0,0,1.748-.006l15.261-15.456,15.22,14a1.232,1.232,0,0,0,1.758-.091l22.184-25.073,0.008,1.419a1.24,1.24,0,0,0,1.236,1.234h0.008a1.24,1.24,0,0,0,1.229-1.25Z" transform="translate(-306 -811)"/>
</svg>
