<svg xmlns="http://www.w3.org/2000/svg" width="70" height="70" viewBox="0 0 70 70">
  <metadata><?xpacket begin="﻿" id="W5M0MpCehiHzreSzNTczkc9d"?>
<x:xmpmeta xmlns:x="adobe:ns:meta/" x:xmptk="Adobe XMP Core 5.6-c142 79.160924, 2017/07/13-01:06:39        ">
   <rdf:RDF xmlns:rdf="http://www.w3.org/1999/02/22-rdf-syntax-ns#">
      <rdf:Description rdf:about=""/>
   </rdf:RDF>
</x:xmpmeta>
                                                                                                    
                                                                                                    
                                                                                                    
                                                                                                    
                                                                                                    
                                                                                                    
                                                                                                    
                                                                                                    
                                                                                                    
                                                                                                    
                                                                                                    
                                                                                                    
                                                                                                    
                                                                                                    
                                                                                                    
                                                                                                    
                                                                                                    
                                                                                                    
                                                                                                    
                                                                                                    
                           
<?xpacket end="w"?></metadata>
<defs>
    <style>
      .cls-1 {
        fill: #2a333c;
        fill-rule: evenodd;
      }
    </style>
  </defs>
  <path id="icon" class="cls-1" d="M370.317,1025.68a2.314,2.314,0,0,0-1.835-.67l-5.343.42a2.286,2.286,0,0,0-1.467.68l-0.638.63a1.044,1.044,0,1,0-1.47,1.48l-0.78.78a1.041,1.041,0,1,0-1.47,1.47l-0.764.76a2.338,2.338,0,0,0-.683,1.6s-0.06,2.86-.058,2.9l-8.368,7.33a18.428,18.428,0,0,0-7.5-2.9,1.041,1.041,0,0,0-.307,2.06,17.1,17.1,0,0,1,14.3,15.54,14.39,14.39,0,0,1-.78,5.7,13.23,13.23,0,0,1-3.137,4.99,15.813,15.813,0,0,1-4.521,2.92c-0.181.09-2.5,0.75-2.634,4.61a17.641,17.641,0,0,1-5.062,11.91,16.961,16.961,0,0,1-6.477,4.05,18.773,18.773,0,0,1-7.453.98,22.782,22.782,0,0,1-20.75-20.76,18.777,18.777,0,0,1,.979-7.46,17.029,17.029,0,0,1,4.054-6.48,17.708,17.708,0,0,1,11.891-5.07s3.552,0.05,4.452-2.3a17.182,17.182,0,0,1,3.084-4.86,13.206,13.206,0,0,1,4.985-3.13,1.044,1.044,0,0,0-.694-1.97,15.37,15.37,0,0,0-5.761,3.63,17.468,17.468,0,0,0-3.53,5.52c-0.06.1-.588,0.85-2.641,1.04a19.676,19.676,0,0,0-13.256,5.67,19.049,19.049,0,0,0-4.547,7.27,20.823,20.823,0,0,0-1.091,8.28,24.87,24.87,0,0,0,22.687,22.7,24.554,24.554,0,0,0,8.276-1.09,19.455,19.455,0,0,0,7.261-4.55,20.677,20.677,0,0,0,5.671-13.31c0.171-2.31,1.281-2.72,1.425-2.79a17.645,17.645,0,0,0,5.121-3.34,15.241,15.241,0,0,0,3.627-5.77,16.457,16.457,0,0,0,.9-6.52,18.389,18.389,0,0,0-3.067-9.05l7.333-8.38,2.9-.06a2.3,2.3,0,0,0,1.6-.68l0.763-.76a1.044,1.044,0,1,0,1.47-1.48l0.78-.78a1.041,1.041,0,1,0,1.47-1.47l0.638-.63a2.37,2.37,0,0,0,.677-1.47l0.422-5.35A2.356,2.356,0,0,0,370.317,1025.68ZM351.7,1046.9a11.141,11.141,0,0,0-2.558-2.56l7.656-6.71,1.586,1.58Zm16.724-14.04-5.122,5.13c-0.046.05-2.96,0.14-2.96,0.14a0.25,0.25,0,0,1-.18-0.08l-2.2-2.2c-0.049-.05.015-3.1,0.062-3.15l5.122-5.12c0.043-.05,5.5-0.5,5.5-0.5a0.481,0.481,0,0,1,.2.08,0.243,0.243,0,0,1,.074.2S368.467,1032.82,368.424,1032.86Zm-29.374,24.11a6.023,6.023,0,1,0,1.76,4.25A5.986,5.986,0,0,0,339.05,1056.97Zm-1.47,7.03a3.93,3.93,0,0,1-6.708-2.78A3.93,3.93,0,1,1,337.58,1064Zm-0.978-24.02c-0.463.02-.929,0.06-1.385,0.12a1.044,1.044,0,0,0-.9,1.16,0.967,0.967,0,0,0,1.163.9c0.4-.05.806-0.08,1.212-0.1A1.041,1.041,0,0,0,336.6,1039.98Zm-9.109,40.54-1.648-1.65,1.384-1.38a1.039,1.039,0,0,0-1.47-1.47l-1.384,1.38-2.136-2.13,3.113-3.12a1.039,1.039,0,1,0-1.47-1.47l-3.113,3.12-2.136-2.14,4.792-4.8a1.039,1.039,0,0,0-1.47-1.47l-4.793,4.8-1.648-1.65a3.134,3.134,0,1,0-4.434,4.43l11.979,11.99A3.137,3.137,0,0,0,327.493,1080.52Zm-1.47,2.97a1.055,1.055,0,0,1-1.494,0L312.55,1071.5a1.055,1.055,0,0,1,.746-1.8,1.048,1.048,0,0,1,.747.31l11.98,11.99A1.053,1.053,0,0,1,326.023,1083.49Zm38.212-53.46-0.606-.61a0.549,0.549,0,0,0-.785,0l-0.606.61a0.55,0.55,0,0,0,0,.78l0.606,0.61a0.549,0.549,0,0,0,.785,0l0.606-.61A0.55,0.55,0,0,0,364.235,1030.03Zm2.348,2.35-0.607-.61a0.548,0.548,0,0,0-.784,0l-0.607.61a0.55,0.55,0,0,0,0,.78l0.607,0.61a0.567,0.567,0,0,0,.784,0l0.607-.61A0.55,0.55,0,0,0,366.583,1032.38Zm-2.25,2.25-0.607-.61a0.567,0.567,0,0,0-.784,0l-0.607.61a0.55,0.55,0,0,0,0,.78l0.607,0.61a0.548,0.548,0,0,0,.784,0l0.607-.61A0.552,0.552,0,0,0,364.333,1034.63Zm-2.348-2.35-0.607-.61a0.567,0.567,0,0,0-.784,0l-0.607.61a0.552,0.552,0,0,0,0,.78l0.607,0.61a0.548,0.548,0,0,0,.784,0l0.607-.61A0.55,0.55,0,0,0,361.985,1032.28Zm-19.476,21.23a10.905,10.905,0,0,0-15.414,0A10.905,10.905,0,1,0,342.509,1053.51Zm-1.471,13.95a8.828,8.828,0,0,1-12.473,0A8.822,8.822,0,1,1,341.038,1067.46Z" transform="translate(-301 -1025)"/>
</svg>
