<svg xmlns="http://www.w3.org/2000/svg" width="82.969" height="82" viewBox="0 0 82.969 82">
  <metadata><?xpacket begin="﻿" id="W5M0MpCehiHzreSzNTczkc9d"?>
<x:xmpmeta xmlns:x="adobe:ns:meta/" x:xmptk="Adobe XMP Core 5.6-c142 79.160924, 2017/07/13-01:06:39        ">
   <rdf:RDF xmlns:rdf="http://www.w3.org/1999/02/22-rdf-syntax-ns#">
      <rdf:Description rdf:about=""/>
   </rdf:RDF>
</x:xmpmeta>
                                                                                                    
                                                                                                    
                                                                                                    
                                                                                                    
                                                                                                    
                                                                                                    
                                                                                                    
                                                                                                    
                                                                                                    
                                                                                                    
                                                                                                    
                                                                                                    
                                                                                                    
                                                                                                    
                                                                                                    
                                                                                                    
                                                                                                    
                                                                                                    
                                                                                                    
                                                                                                    
                           
<?xpacket end="w"?></metadata>
<defs>
    <style>
      .cls-1 {
        fill: #2a333c;
        fill-rule: evenodd;
      }
    </style>
  </defs>
  <path id="icon" class="cls-1" d="M572.257,865.874a1.32,1.32,0,0,0,.93-0.381,1.291,1.291,0,0,0,0-1.84l-2.408-2.38a1.327,1.327,0,0,0-1.861,0,1.289,1.289,0,0,0,0,1.839l2.408,2.381A1.32,1.32,0,0,0,572.257,865.874Zm-9.34-1.123a1.291,1.291,0,0,0,0,1.84l4.89,4.833a1.327,1.327,0,0,0,1.861,0,1.289,1.289,0,0,0,0-1.839l-4.89-4.834A1.327,1.327,0,0,0,562.917,864.751Zm5.672,12.822a1.3,1.3,0,1,1-1.316,1.3A1.309,1.309,0,0,1,568.589,877.573Zm-1.227,4.95a1.3,1.3,0,1,1-1.316,1.3A1.309,1.309,0,0,1,567.362,882.523Zm48.215-54.834-1.308-1.293,0.718-1.278a3.777,3.777,0,0,0-.642-4.526,3.837,3.837,0,0,0-2.715-1.112,3.877,3.877,0,0,0-1.864.477l-1.293.71-1.308-1.293a1.328,1.328,0,0,0-1.862,0,1.289,1.289,0,0,0,0,1.839l0.777,0.768-1.431.785-1.308-1.293a1.327,1.327,0,0,0-1.861,0,1.291,1.291,0,0,0,0,1.84l0.776,0.767-1.43.786-1.3-1.282a1.327,1.327,0,0,0-1.861,0,1.291,1.291,0,0,0,0,1.84l0.814,0.8c-0.094.077-.186,0.157-0.273,0.243a3.765,3.765,0,0,0-.378,4.924L579.7,848.5a6.679,6.679,0,0,0-2.74.511l-41.118,17.24a4.657,4.657,0,0,0-1.481.987,4.594,4.594,0,0,0,0,6.543,4.691,4.691,0,0,0,3.306,1.355c0.151,0,.3-0.007.455-0.022V875.1c0.2-.009.441-0.032,0.755-0.062l4.074-.388-0.253-2.59s-4.672.446-4.823,0.459a2.06,2.06,0,0,1-1.652-.582,2.011,2.011,0,0,1,0-2.864,2.052,2.052,0,0,1,.648-0.431l38.656-16.207-3.4,3.21a1.288,1.288,0,0,0-.022,1.86l4.89,4.834a1.323,1.323,0,0,0,.93.381h0.015a1.319,1.319,0,0,0,.937-0.4l3.248-3.363-16.4,38.209a2.006,2.006,0,0,1-.437.641,2.069,2.069,0,0,1-2.9,0,2.008,2.008,0,0,1-.59-1.628l2.007-20.59a4.579,4.579,0,0,0-1.349-3.716,4.7,4.7,0,0,0-3.761-1.334l-10.762,1.025a1.3,1.3,0,1,0,.253,2.59l10.762-1.025a2.06,2.06,0,0,1,1.647.583,2.009,2.009,0,0,1,.59,1.628l-2.007,20.59a4.583,4.583,0,0,0,1.349,3.717,4.724,4.724,0,0,0,6.619,0,4.608,4.608,0,0,0,1-1.464l17.441-40.642a6.449,6.449,0,0,0,.517-2.709l17.3-17.917a3.864,3.864,0,0,0,4.982-.375c0.087-.085.167-0.176,0.245-0.269l0.814,0.805a1.327,1.327,0,0,0,1.861,0,1.291,1.291,0,0,0,0-1.84l-1.3-1.282,0.8-1.414,0.777,0.768a1.327,1.327,0,0,0,1.861,0,1.291,1.291,0,0,0,0-1.84l-1.308-1.293,0.794-1.414,0.777,0.767a1.327,1.327,0,0,0,1.861,0A1.289,1.289,0,0,0,615.577,827.689ZM577.9,859.561l-2.985-2.951,24.738-23.341,1.862,1.84Zm34.782-35.707-5.463,9.721-0.484.861a1.261,1.261,0,0,1-.2.265,1.217,1.217,0,0,1-1.708,0L600.07,830a1.185,1.185,0,0,1,0-1.688,1.232,1.232,0,0,1,.268-0.2l0.87-.478,9.836-5.4a1.227,1.227,0,0,1,.586-0.149,1.2,1.2,0,0,1,.853.35A1.186,1.186,0,0,1,612.686,823.854Z" transform="translate(-533 -819)"/>
</svg>
