<svg xmlns="http://www.w3.org/2000/svg" width="85" height="85" viewBox="0 0 85 85">
  <metadata><?xpacket begin="﻿" id="W5M0MpCehiHzreSzNTczkc9d"?>
<x:xmpmeta xmlns:x="adobe:ns:meta/" x:xmptk="Adobe XMP Core 5.6-c142 79.160924, 2017/07/13-01:06:39        ">
   <rdf:RDF xmlns:rdf="http://www.w3.org/1999/02/22-rdf-syntax-ns#">
      <rdf:Description rdf:about=""/>
   </rdf:RDF>
</x:xmpmeta>
                                                                                                    
                                                                                                    
                                                                                                    
                                                                                                    
                                                                                                    
                                                                                                    
                                                                                                    
                                                                                                    
                                                                                                    
                                                                                                    
                                                                                                    
                                                                                                    
                                                                                                    
                                                                                                    
                                                                                                    
                                                                                                    
                                                                                                    
                                                                                                    
                                                                                                    
                                                                                                    
                           
<?xpacket end="w"?></metadata>
<defs>
    <style>
      .cls-1 {
        fill: #2a333c;
        fill-rule: evenodd;
      }
    </style>
  </defs>
  <path id="icon" class="cls-1" d="M546.584,1076.43a1.371,1.371,0,0,0-1.939,1.94l12.976,12.98a1.375,1.375,0,0,0,1.939,0,1.373,1.373,0,0,0,0-1.94Zm69.3-46.69a8.574,8.574,0,0,0-9.647-9.65,1.312,1.312,0,0,0-.66.36l-0.526.53-0.323-.32a1.371,1.371,0,1,0-1.938,1.94l0.323,0.32-1.46,1.46-0.323-.33a1.371,1.371,0,0,0-1.938,1.94l0.322,0.33-1.459,1.46-0.323-.33a1.371,1.371,0,1,0-1.939,1.94l0.594,0.6-2.05,4.1-14.762,14.22c-3.023-2.34-9-5.73-15.219-2.39-4.147,2.21-5.251,5.03-6.225,7.52-0.777,1.99-1.447,3.7-3.545,5.26-0.976.72-2.777,1.08-4.863,1.49-5.212,1.04-12.349,2.47-17.04,11.14-5.587,10.33,2.7,20.35,6.524,24.18l1.085,1.09c2.909,2.91,9.395,8.4,16.884,8.4a15.083,15.083,0,0,0,7.284-1.88c8.671-4.7,10.093-11.83,11.132-17.05,0.416-2.08.775-3.88,1.5-4.86,1.554-2.1,3.268-2.77,5.251-3.55,2.49-.97,5.312-2.08,7.525-6.23,3.331-6.22-.057-12.2-2.39-15.22l14.207-14.77,4.105-2.05,0.593,0.59a1.368,1.368,0,1,0,1.938-1.93l-0.323-.33,1.46-1.46,0.323,0.33a1.375,1.375,0,0,0,1.939,0,1.373,1.373,0,0,0,0-1.94l-0.323-.33,1.459-1.46,0.323,0.33a1.375,1.375,0,0,0,1.939,0,1.373,1.373,0,0,0,0-1.94l-0.323-.33,0.526-.52A1.368,1.368,0,0,0,615.881,1029.74Zm-28.237,40.4c-1.736,3.26-3.761,4.05-6.106,4.97a12.889,12.889,0,0,0-6.455,4.47c-1.087,1.47-1.5,3.55-1.982,5.96-0.985,4.94-2.21,11.09-9.748,15.16-8.715,4.72-17.537-2.65-20.923-6.04l-1.091-1.09c-3.388-3.39-10.758-12.22-6.048-20.94,4.078-7.54,10.225-8.76,15.164-9.75,2.409-.48,4.49-0.89,5.959-1.98a12.972,12.972,0,0,0,4.466-6.46c0.918-2.34,1.71-4.37,4.966-6.11,4.655-2.49,9.329-.02,11.926,1.9l-8.885,8.56c-0.13-.01-0.26-0.01-0.391-0.01a8.722,8.722,0,1,0,8.711,8.73q0-.21-0.009-0.42l8.549-8.88C587.667,1060.81,590.136,1065.48,587.644,1070.14Zm-18.392-8.57a5.94,5.94,0,0,1,5.164,5.16c0,0.01,0,.03,0,0.04a5.981,5.981,0,1,1-5.925-5.25c0.241,0,.479.02,0.715,0.04C569.224,1061.56,569.238,1061.57,569.252,1061.57Zm7.2,2.35a8.646,8.646,0,0,0-1.792-2.6,8.545,8.545,0,0,0-2.592-1.78l23.572-22.7,3.5,3.5Zm36.806-35.14-1.168,1.17h0a0.042,0.042,0,0,1,0,.01l-3.391,3.39h0a0.038,0.038,0,0,0,0,.01l-3.241,3.24-4.113,2.06-4-4.02,2.057-4.11,7.81-7.81A5.956,5.956,0,0,1,613.253,1028.78Z" transform="translate(-531 -1020)"/>
</svg>
