<svg xmlns="http://www.w3.org/2000/svg" width="68" height="76" viewBox="0 0 68 76">
  <metadata><?xpacket begin="﻿" id="W5M0MpCehiHzreSzNTczkc9d"?>
<x:xmpmeta xmlns:x="adobe:ns:meta/" x:xmptk="Adobe XMP Core 5.6-c142 79.160924, 2017/07/13-01:06:39        ">
   <rdf:RDF xmlns:rdf="http://www.w3.org/1999/02/22-rdf-syntax-ns#">
      <rdf:Description rdf:about=""/>
   </rdf:RDF>
</x:xmpmeta>
                                                                                                    
                                                                                                    
                                                                                                    
                                                                                                    
                                                                                                    
                                                                                                    
                                                                                                    
                                                                                                    
                                                                                                    
                                                                                                    
                                                                                                    
                                                                                                    
                                                                                                    
                                                                                                    
                                                                                                    
                                                                                                    
                                                                                                    
                                                                                                    
                                                                                                    
                                                                                                    
                           
<?xpacket end="w"?></metadata>
<defs>
    <style>
      .cls-1 {
        fill: #2a333c;
        fill-rule: evenodd;
      }
    </style>
  </defs>
  <path id="icon" class="cls-1" d="M853.651,1055.33l-15.878-15.82a1.022,1.022,0,0,0-1.123-.23,1.035,1.035,0,0,0-.637.95,6.975,6.975,0,0,1-2.392,5.28,27.706,27.706,0,0,0-9.549,20.92v14.63a3.011,3.011,0,0,1-3.018,3,3.012,3.012,0,0,1-2.654-1.58,3.658,3.658,0,0,0-.5-5.77l-0.075-2.39a3.666,3.666,0,0,0-.2-6.37l-0.065-2.08a3.669,3.669,0,0,0-.208-6.65l-0.056-1.83a3.666,3.666,0,0,0-.215-6.87l-0.05-1.62a3.676,3.676,0,0,0-.221-7.06l-0.384-12.32a9.028,9.028,0,0,0-3.112-6.36,9.5,9.5,0,0,0-6.147-2.58h-3.962a1.493,1.493,0,0,0-.214.02H801.2a1.038,1.038,0,0,0-.938-0.6h-7.955a1.025,1.025,0,0,0-.738.31l-5.279,5.39a1.022,1.022,0,0,0,.738,1.74h13.234a1.027,1.027,0,0,0,1.01-.82h1.437a1.038,1.038,0,0,0,.5.13h3.8a4.36,4.36,0,0,1,2.464,1.26,1.687,1.687,0,0,1,.562,1.19l-1.47,51.66c0,0.15-.007.3-0.007,0.45a14.758,14.758,0,0,0,29.516-.01v-2.97c0-7.08.634-11.24,2.118-13.9,1.384-2.49,3.486-3.68,6.668-5.48l0.251-.14a9.649,9.649,0,0,1,4.572-1.69h1.285a1.027,1.027,0,0,0,1.03-1.02A1,1,0,0,0,853.651,1055.33Zm-39.233-6.56,0.245,0.09c0.015,0.01.031,0.01,0.046,0.02a2.5,2.5,0,0,0,.264.08h0l0.045,1.47H815a2.433,2.433,0,0,0-.26.08c-0.016,0-.032.01-0.048,0.01a2.373,2.373,0,0,0-.253.1c-0.009,0-.018.01-0.027,0.01a2.018,2.018,0,0,0-.224.11v-2.08l0.18,0.09A0.093,0.093,0,0,1,814.418,1048.77Zm-0.076,8.56a2.779,2.779,0,0,0,.267.11,0.109,0.109,0,0,1,.011.01l0.28,0.09a0.06,0.06,0,0,1,.04.01l0.279,0.06a0.028,0.028,0,0,1,.025.01l0.042,1.35c-0.028,0-.054.01-0.081,0.01s-0.046.01-.068,0.02a0.478,0.478,0,0,0-.118.02c-0.017.01-.035,0.01-0.052,0.02-0.055.01-.11,0.03-0.165,0.04-0.016.01-.032,0.01-0.048,0.02a0.507,0.507,0,0,0-.115.04,0.159,0.159,0,0,0-.064.02c-0.032.01-.064,0.03-0.1,0.04l-0.068.03a0.343,0.343,0,0,0-.088.04l-0.068.03-0.063.03v-2.07l0.121,0.06C814.323,1057.32,814.333,1057.33,814.342,1057.33Zm-0.013,8.59c0.028,0.01.056,0.03,0.085,0.04l0.074,0.03,0.087,0.03a0.246,0.246,0,0,0,.077.03l0.089,0.03,0.077,0.03,0.094,0.03a0.215,0.215,0,0,1,.076.02,0.349,0.349,0,0,1,.1.02,0.2,0.2,0,0,1,.074.02,0.44,0.44,0,0,1,.112.02,0.143,0.143,0,0,1,.064.01c0.059,0.01.117,0.01,0.176,0.02l0.04,1.28h-0.018a0.231,0.231,0,0,1-.082.01c-0.033.01-.065,0.01-0.1,0.02a0.236,0.236,0,0,0-.083.01,0.317,0.317,0,0,0-.094.02c-0.028,0-.055.01-0.082,0.01a0.31,0.31,0,0,1-.093.02l-0.079.03a0.3,0.3,0,0,0-.092.02l-0.078.03-0.09.03a0.215,0.215,0,0,0-.076.02c-0.03.01-.059,0.03-0.088,0.04l-0.074.03a0.338,0.338,0,0,0-.087.04l-0.071.03c-0.026.01-.052,0.03-0.077,0.04v-2.08a0.225,0.225,0,0,1,.064.04Zm2.009,3.71a1.62,1.62,0,0,1,.092,3.09,1.6,1.6,0,0,1-.537.09A1.62,1.62,0,1,1,816.338,1069.63Zm-2.146,6.9v-2.08c0.023,0.01.047,0.03,0.071,0.04l0.076,0.03a0.312,0.312,0,0,0,.085.04l0.077,0.03a0.343,0.343,0,0,0,.088.04l0.079,0.03,0.09,0.03c0.027,0.01.054,0.01,0.08,0.02l0.093,0.03c0.027,0.01.054,0.01,0.081,0.02s0.063,0.01.1,0.02,0.055,0.01.083,0.02,0.064,0.01.1,0.02,0.056,0.01.084,0.01,0.066,0.01.1,0.01,0.056,0.01.084,0.01,0.067,0.01.1,0.01h0.085a0.066,0.066,0,0,1,.042.01l0.039,1.24a0.129,0.129,0,0,0-.061.01H815.67a0.327,0.327,0,0,0-.1.01h-0.088c-0.032.01-.064,0.01-0.1,0.02s-0.058.01-.086,0.01a0.329,0.329,0,0,0-.1.02c-0.028,0-.056.01-0.084,0.01a0.323,0.323,0,0,1-.094.02l-0.083.03a0.3,0.3,0,0,0-.092.02l-0.081.03-0.091.03c-0.026.01-.053,0.01-0.079,0.02a0.36,0.36,0,0,1-.088.04l-0.078.03c-0.029.01-.058,0.03-0.086,0.04a0.265,0.265,0,0,0-.076.04A0.31,0.31,0,0,0,814.192,1076.53Zm1.7,1.64a1.8,1.8,0,0,1,.611.11,1.625,1.625,0,0,1,.157,2.94,1.694,1.694,0,0,1-.768.19A1.62,1.62,0,1,1,815.893,1078.17Zm0.381-14h-0.016a1.414,1.414,0,0,1-.365.04,1.611,1.611,0,0,1-1.617-1.79,0.327,0.327,0,0,1,.008-0.05c0.006-.04.012-0.08,0.02-0.12,0-.02.01-0.04,0.015-0.06s0.019-.07.03-0.11a0.244,0.244,0,0,0,.022-0.05,0.594,0.594,0,0,1,.04-0.1c0.009-.02.018-0.04,0.028-0.06s0.031-.06.048-0.09l0.035-.06a0.779,0.779,0,0,0,.055-0.08c0.014-.02.028-0.03,0.042-0.05a0.388,0.388,0,0,1,.059-0.07l0.052-.06c0.019-.02.038-0.03,0.057-0.05l0.066-.06,0.041-.03a1.588,1.588,0,0,1,.5-0.27,0.012,0.012,0,0,0,.013-0.01l0.126-.03a0.057,0.057,0,0,0,.039-0.01c0.037,0,.075-0.01.113-0.01a0.135,0.135,0,0,1,.062-0.01,0.314,0.314,0,0,0,.1-0.01,0.347,0.347,0,0,1,.1.01H816a0.886,0.886,0,0,1,.16.02h0.013A1.618,1.618,0,0,1,816.274,1064.17Zm-0.172-8.57a1.423,1.423,0,0,1-.209.02,1.62,1.62,0,1,1,0-3.24h0.116A1.618,1.618,0,0,1,816.1,1055.6Zm1.418-10.2a1.617,1.617,0,0,1-1.574,1.62h-0.053a1.62,1.62,0,0,1-.052-3.24h0.052A1.628,1.628,0,0,1,817.52,1045.4Zm-18.285-20.01h-1v-3.34h1v3.34Zm-3.06,0H795.1v-3.34h1.074v3.34Zm-3.43-3.34h0.294v3.34h-3.56Zm8.552,0.61h0.881v1.91H801.3v-1.91Zm44.8,34.36-0.251.15c-3.234,1.82-5.788,3.27-7.453,6.26s-2.377,7.44-2.377,14.9v2.97a12.7,12.7,0,0,1-25.391.01c0-.13,0-0.26,0-0.39l1.47-51.67a3.685,3.685,0,0,0-1.128-2.65,6.271,6.271,0,0,0-3.919-1.91h-2.809v-2.06h2.93c3.162,0,7.078,3.1,7.2,6.95l0.384,12.32a0.017,0.017,0,0,0-.018.01,2.141,2.141,0,0,0-.242.08,0.074,0.074,0,0,1-.038.02,2.145,2.145,0,0,0-.233.11h-0.008c-0.008,0-.015.01-0.022,0.01v-0.7a1.031,1.031,0,0,0-2.062,0v43.63a1.031,1.031,0,0,0,2.062,0v-2.01a3.733,3.733,0,0,0,1.7.41,2.918,2.918,0,0,0,.3-0.01c0.026,0,.051-0.01.077-0.01l0.264-.03a0.026,0.026,0,0,1,.024-0.01,5.079,5.079,0,0,0,8.092,1.23,4.993,4.993,0,0,0,1.487-3.57v-14.63a25.649,25.649,0,0,1,8.842-19.37,9.006,9.006,0,0,0,2.829-4.62l12.763,12.72A13.914,13.914,0,0,0,846.094,1057.02Zm-7.656-10.47a1.024,1.024,0,0,1-.1,1.45,25.843,25.843,0,0,0-8.249,13.88,1.034,1.034,0,0,1-1.007.81,1.665,1.665,0,0,1-.221-0.02,1.032,1.032,0,0,1-.787-1.23,27.914,27.914,0,0,1,8.909-14.99A1.033,1.033,0,0,1,838.438,1046.55Zm-11,20.82c0-.74.03-1.48,0.089-2.21a1.031,1.031,0,0,1,2.055.16c-0.054.68-.081,1.37-0.081,2.05A1.032,1.032,0,0,1,827.433,1067.37Zm3.64,1.09a3.855,3.855,0,1,0,3.867,3.86A3.867,3.867,0,0,0,831.073,1068.46Zm0,5.66a1.8,1.8,0,1,1,1.805-1.8A1.807,1.807,0,0,1,831.073,1074.12Zm0,2.61a3.855,3.855,0,1,0,3.867,3.86A3.867,3.867,0,0,0,831.073,1076.73Zm0,5.66a1.8,1.8,0,1,1,1.805-1.8A1.807,1.807,0,0,1,831.073,1082.39Z" transform="translate(-786 -1020)"/>
</svg>
