<svg xmlns="http://www.w3.org/2000/svg" width="99" height="94" viewBox="0 0 99 94">
  <metadata><?xpacket begin="﻿" id="W5M0MpCehiHzreSzNTczkc9d"?>
<x:xmpmeta xmlns:x="adobe:ns:meta/" x:xmptk="Adobe XMP Core 5.6-c142 79.160924, 2017/07/13-01:06:39        ">
   <rdf:RDF xmlns:rdf="http://www.w3.org/1999/02/22-rdf-syntax-ns#">
      <rdf:Description rdf:about=""/>
   </rdf:RDF>
</x:xmpmeta>
                                                                                                    
                                                                                                    
                                                                                                    
                                                                                                    
                                                                                                    
                                                                                                    
                                                                                                    
                                                                                                    
                                                                                                    
                                                                                                    
                                                                                                    
                                                                                                    
                                                                                                    
                                                                                                    
                                                                                                    
                                                                                                    
                                                                                                    
                                                                                                    
                                                                                                    
                                                                                                    
                           
<?xpacket end="w"?></metadata>
<defs>
    <style>
      .cls-1 {
        fill: #2a333c;
        fill-rule: evenodd;
      }
    </style>
  </defs>
  <path id="icon" class="cls-1" d="M827.69,847.018l-2.311,1.793a13.81,13.81,0,0,1,3.055,8.7,14.2,14.2,0,1,1-5.513-11.117l1.809-2.286a16.938,16.938,0,1,0,6.645,13.4A16.656,16.656,0,0,0,827.69,847.018Zm-13.545,5.221a5.278,5.278,0,1,0,5.353,5.277A5.321,5.321,0,0,0,814.145,852.239Zm0,7.655a2.379,2.379,0,1,1,2.413-2.378A2.4,2.4,0,0,1,814.144,859.894Zm49.994-5.264a4.9,4.9,0,0,0-1.921.391v-2.285a4.833,4.833,0,0,0-4.862-4.793c-0.048,0-.1,0-0.143,0a44.4,44.4,0,0,0-74.283-21.2,43.081,43.081,0,0,0,0,61.541,44.183,44.183,0,0,0,31.216,12.746,44.788,44.788,0,0,0,19.341-4.4,18.469,18.469,0,0,0,35.514-6.8V859.423A4.833,4.833,0,0,0,864.138,854.63Zm-31.993,13.709v15.537a32.345,32.345,0,0,1-18,5.413c-17.773,0-32.233-14.254-32.233-31.774s14.46-31.773,32.233-31.773v-2.9c-19.395,0-35.173,15.554-35.173,34.672s15.778,34.673,35.173,34.673a35.322,35.322,0,0,0,18-4.878v2.524c0,0.165,0,.328.007,0.492,0,0.036,0,.072,0,0.108,0,0.13.009,0.259,0.016,0.389,0,0.033,0,.066.007,0.1,0.008,0.135.017,0.269,0.028,0.4,0,0.024,0,.048.007,0.073,0.012,0.145.027,0.29,0.043,0.435,0,0.014,0,.027,0,0.04,0.018,0.16.039,0.318,0.061,0.476h0q0.106,0.755.275,1.489a41.789,41.789,0,0,1-18.453,4.293c-22.72,0-41.2-18.221-41.2-40.617s18.484-40.618,41.2-40.618a41.13,41.13,0,0,1,39.832,30.191q-0.087-.086-0.18-0.165c-0.012-.012-0.026-0.022-0.039-0.033-0.065-.056-0.131-0.11-0.2-0.162l-0.064-.049c-0.08-.059-0.161-0.116-0.244-0.171l-0.037-.023c-0.075-.048-0.151-0.093-0.227-0.137l-0.07-.039c-0.088-.048-0.178-0.094-0.269-0.137l-0.033-.014c-0.084-.038-0.168-0.074-0.254-0.108l-0.075-.028c-0.1-.036-0.193-0.069-0.292-0.1l-0.023-.007c-0.093-.028-0.186-0.052-0.281-0.074l-0.079-.017c-0.1-.023-0.206-0.043-0.31-0.058l-0.014,0q-0.152-.021-0.306-0.033c-0.027,0-.055,0-0.082-0.006-0.108-.008-0.217-0.012-0.326-0.012a4.832,4.832,0,0,0-4.862,4.792v0.056a4.873,4.873,0,0,0-6.783,4.4v8.972a4.895,4.895,0,0,0-1.921-.39A4.831,4.831,0,0,0,832.145,868.339Zm33.915,21.495h0a15.513,15.513,0,0,1-30.425,4.021c-0.041-.149-0.08-0.3-0.116-0.447-0.03-.122-0.059-0.243-0.086-0.366-0.023-.107-0.045-0.214-0.066-0.322s-0.044-.238-0.065-0.358c-0.017-.1-0.034-0.195-0.048-0.293-0.031-.2-0.058-0.41-0.08-0.617-0.008-.071-0.013-0.142-0.02-0.213-0.015-.165-0.028-0.332-0.038-0.5,0-.071-0.009-0.143-0.012-0.215-0.011-.229-0.018-0.459-0.018-0.691V868.339a1.921,1.921,0,0,1,3.842,0v15.145h2.941V854.965a1.922,1.922,0,0,1,3.843,0v20.714h2.94V850.507a1.922,1.922,0,0,1,3.843,0v22.942h2.94V852.736a1.919,1.919,0,0,1,.019-0.253c0-.022.007-0.044,0.011-0.066a1.7,1.7,0,0,1,.049-0.214c0-.012.006-0.024,0.01-0.036a1.893,1.893,0,0,1,.083-0.209c0.012-.027.025-0.053,0.039-0.08,0.026-.05.055-0.1,0.085-0.148,0.021-.031.041-0.062,0.063-0.092,0.034-.047.07-0.093,0.108-0.137,0.021-.024.044-0.048,0.066-0.071a1.853,1.853,0,0,1,.145-0.135l0.049-.04a2.085,2.085,0,0,1,.181-0.126l0.049-.029a1.922,1.922,0,0,1,2.886,1.636v22.942h2.941V859.423a1.921,1.921,0,0,1,3.842,0v30.411h0Zm-51.916-55.248v-2.9a25.831,25.831,0,1,0,0,51.657v-2.9A22.932,22.932,0,1,1,814.144,834.586Z" transform="translate(-770 -814)"/>
</svg>
