<svg xmlns="http://www.w3.org/2000/svg" width="64" height="67" viewBox="0 0 64 67">
  <metadata><?xpacket begin="﻿" id="W5M0MpCehiHzreSzNTczkc9d"?>
<x:xmpmeta xmlns:x="adobe:ns:meta/" x:xmptk="Adobe XMP Core 5.6-c142 79.160924, 2017/07/13-01:06:39        ">
   <rdf:RDF xmlns:rdf="http://www.w3.org/1999/02/22-rdf-syntax-ns#">
      <rdf:Description rdf:about=""/>
   </rdf:RDF>
</x:xmpmeta>
                                                                                                    
                                                                                                    
                                                                                                    
                                                                                                    
                                                                                                    
                                                                                                    
                                                                                                    
                                                                                                    
                                                                                                    
                                                                                                    
                                                                                                    
                                                                                                    
                                                                                                    
                                                                                                    
                                                                                                    
                                                                                                    
                                                                                                    
                                                                                                    
                                                                                                    
                                                                                                    
                           
<?xpacket end="w"?></metadata>
<defs>
    <style>
      .cls-1 {
        fill: #2a333c;
        fill-rule: evenodd;
      }
    </style>
  </defs>
  <path id="icon" class="cls-1" d="M1076.82,874.844a12.253,12.253,0,0,1,0-24.506,12.09,12.09,0,0,1,8.7,3.692V836.763l-36.17,8.353v26.63a12.175,12.175,0,1,1-12.17-12.253,12.084,12.084,0,0,1,8.69,3.692V827.9a1.746,1.746,0,0,1,1.35-1.705l39.65-9.156a1.72,1.72,0,0,1,1.47.337,1.74,1.74,0,0,1,.66,1.368v43.843A12.228,12.228,0,0,1,1076.82,874.844Zm-39.64-11.853a8.755,8.755,0,1,0,8.69,8.755A8.736,8.736,0,0,0,1037.18,862.991Zm48.34-42.047-36.17,8.353v12.23l36.17-8.353v-12.23Zm-8.7,32.892a8.755,8.755,0,1,0,8.7,8.755A8.742,8.742,0,0,0,1076.82,853.836ZM1077,868a5,5,0,1,1,5-5A5,5,0,0,1,1077,868Zm-40,9a5,5,0,1,1,5-5A5,5,0,0,1,1037,877Z" transform="translate(-1025 -817)"/>
</svg>
