<svg xmlns="http://www.w3.org/2000/svg" width="23" height="23" viewBox="0 0 23 23">
  <metadata><?xpacket begin="﻿" id="W5M0MpCehiHzreSzNTczkc9d"?>
<x:xmpmeta xmlns:x="adobe:ns:meta/" x:xmptk="Adobe XMP Core 5.6-c142 79.160924, 2017/07/13-01:06:39        ">
   <rdf:RDF xmlns:rdf="http://www.w3.org/1999/02/22-rdf-syntax-ns#">
      <rdf:Description rdf:about=""/>
   </rdf:RDF>
</x:xmpmeta>
                                                                                                    
                                                                                                    
                                                                                                    
                                                                                                    
                                                                                                    
                                                                                                    
                                                                                                    
                                                                                                    
                                                                                                    
                                                                                                    
                                                                                                    
                                                                                                    
                                                                                                    
                                                                                                    
                                                                                                    
                                                                                                    
                                                                                                    
                                                                                                    
                                                                                                    
                                                                                                    
                           
<?xpacket end="w"?></metadata>
<defs>
    <style>
      .cls-1 {
        fill: #30333c;
        fill-rule: evenodd;
      }
    </style>
  </defs>
  <path id="instagram" class="cls-1" d="M984.652,3059H974.347a6.356,6.356,0,0,0-6.347,6.35v10.3a6.356,6.356,0,0,0,6.347,6.35h10.305a6.357,6.357,0,0,0,6.348-6.35v-10.3A6.357,6.357,0,0,0,984.652,3059Zm4.307,16.65a4.311,4.311,0,0,1-4.307,4.31H974.347a4.311,4.311,0,0,1-4.307-4.31v-10.3a4.311,4.311,0,0,1,4.307-4.31h10.305a4.311,4.311,0,0,1,4.307,4.31v10.3h0Zm-9.459-11.08a5.93,5.93,0,1,0,5.926,5.93A5.935,5.935,0,0,0,979.5,3064.57Zm0,9.81a3.885,3.885,0,1,1,3.885-3.88A3.887,3.887,0,0,1,979.5,3074.38Zm6.175-11.54a1.5,1.5,0,0,0-1.5,1.5,1.52,1.52,0,0,0,.44,1.06,1.491,1.491,0,0,0,2.115,0,1.518,1.518,0,0,0,.438-1.06A1.5,1.5,0,0,0,985.675,3062.84Z" transform="translate(-968 -3059)"/>
</svg>
