<svg xmlns="http://www.w3.org/2000/svg" width="21.94" height="27" viewBox="0 0 21.94 27">
  <metadata><?xpacket begin="﻿" id="W5M0MpCehiHzreSzNTczkc9d"?>
<x:xmpmeta xmlns:x="adobe:ns:meta/" x:xmptk="Adobe XMP Core 5.6-c142 79.160924, 2017/07/13-01:06:39        ">
   <rdf:RDF xmlns:rdf="http://www.w3.org/1999/02/22-rdf-syntax-ns#">
      <rdf:Description rdf:about=""/>
   </rdf:RDF>
</x:xmpmeta>
                                                                                                    
                                                                                                    
                                                                                                    
                                                                                                    
                                                                                                    
                                                                                                    
                                                                                                    
                                                                                                    
                                                                                                    
                                                                                                    
                                                                                                    
                                                                                                    
                                                                                                    
                                                                                                    
                                                                                                    
                                                                                                    
                                                                                                    
                                                                                                    
                                                                                                    
                                                                                                    
                           
<?xpacket end="w"?></metadata>
<defs>
    <style>
      .cls-1 {
        fill: #30333c;
        fill-rule: evenodd;
      }
    </style>
  </defs>
  <path id="pinterest" class="cls-1" d="M1052.99,3073.64c1.36-2.31-.44-2.82-0.72-4.49-1.16-6.83,8.24-11.5,13.16-6.73,3.41,3.31,1.16,13.48-4.33,12.42-5.26-1.01,2.58-9.1-1.62-10.69-3.41-1.29-5.22,3.95-3.6,6.56-0.95,4.48-3,8.69-2.17,14.31,2.68-1.86,3.59-5.42,4.33-9.14,1.35,0.78,2.07,1.6,3.79,1.72,6.33,0.47,9.88-6.05,9.01-12.07-0.77-5.34-6.33-8.05-12.26-7.42-4.69.51-9.37,4.13-9.56,9.32C1048.9,3070.59,1049.84,3072.97,1052.99,3073.64Z" transform="translate(-1049.03 -3058.03)"/>
</svg>
