<svg xmlns="http://www.w3.org/2000/svg" width="18" height="20" viewBox="0 0 18 20">
  <metadata><?xpacket begin="﻿" id="W5M0MpCehiHzreSzNTczkc9d"?>
<x:xmpmeta xmlns:x="adobe:ns:meta/" x:xmptk="Adobe XMP Core 5.6-c142 79.160924, 2017/07/13-01:06:39        ">
   <rdf:RDF xmlns:rdf="http://www.w3.org/1999/02/22-rdf-syntax-ns#">
      <rdf:Description rdf:about=""/>
   </rdf:RDF>
</x:xmpmeta>
                                                                                                    
                                                                                                    
                                                                                                    
                                                                                                    
                                                                                                    
                                                                                                    
                                                                                                    
                                                                                                    
                                                                                                    
                                                                                                    
                                                                                                    
                                                                                                    
                                                                                                    
                                                                                                    
                                                                                                    
                                                                                                    
                                                                                                    
                                                                                                    
                                                                                                    
                                                                                                    
                           
<?xpacket end="w"?></metadata>
<defs>
    <style>
      .cls-1 {
        fill: #fff;
        fill-rule: evenodd;
      }
    </style>
  </defs>
  <path id="Forma_1" data-name="Forma 1" class="cls-1" d="M1085.49,594.606a7.194,7.194,0,0,1,2.71-12.576v-1.856a9,9,0,0,0-4.15,15.574C1085.5,597.1,1086.4,595.3,1085.49,594.606Zm10.38-12.429c-0.92-.833-2.27.518-1.39,1.186a7.191,7.191,0,0,1-2.68,12.6v1.856A9,9,0,0,0,1095.87,582.177Zm-6.87,1.408,2.92-1.754a0.5,0.5,0,0,0,.01-0.929l-2.96-1.789a0.463,0.463,0,0,0-.77.434l0.02,3.6A0.47,0.47,0,0,0,1089,583.585Zm2.03,10.83-2.96,1.789a0.5,0.5,0,0,0,.01.929l2.92,1.754a0.47,0.47,0,0,0,.78-0.438l0.02-3.6A0.464,0.464,0,0,0,1091.03,594.415Z" transform="translate(-1081 -579)"/>
</svg>
