<svg xmlns="http://www.w3.org/2000/svg" width="24" height="19" viewBox="0 0 24 19">
  <metadata><?xpacket begin="﻿" id="W5M0MpCehiHzreSzNTczkc9d"?>
<x:xmpmeta xmlns:x="adobe:ns:meta/" x:xmptk="Adobe XMP Core 5.6-c142 79.160924, 2017/07/13-01:06:39        ">
   <rdf:RDF xmlns:rdf="http://www.w3.org/1999/02/22-rdf-syntax-ns#">
      <rdf:Description rdf:about=""/>
   </rdf:RDF>
</x:xmpmeta>
                                                                                                    
                                                                                                    
                                                                                                    
                                                                                                    
                                                                                                    
                                                                                                    
                                                                                                    
                                                                                                    
                                                                                                    
                                                                                                    
                                                                                                    
                                                                                                    
                                                                                                    
                                                                                                    
                                                                                                    
                                                                                                    
                                                                                                    
                                                                                                    
                                                                                                    
                                                                                                    
                           
<?xpacket end="w"?></metadata>
<defs>
    <style>
      .cls-1 {
        fill: #30333c;
        fill-rule: evenodd;
      }
    </style>
  </defs>
  <path id="twitter" class="cls-1" d="M911.338,3063.35a9.893,9.893,0,0,1-3.129,1.16,4.98,4.98,0,0,0-3.593-1.51,4.864,4.864,0,0,0-4.924,4.8,4.7,4.7,0,0,0,.128,1.09,14.108,14.108,0,0,1-10.148-5.01,4.648,4.648,0,0,0-.666,2.41,4.767,4.767,0,0,0,2.19,3.99,5.061,5.061,0,0,1-2.23-.6v0.06a4.832,4.832,0,0,0,3.948,4.7,5.023,5.023,0,0,1-1.3.17,4.738,4.738,0,0,1-.927-0.09,4.918,4.918,0,0,0,4.6,3.34,10.087,10.087,0,0,1-6.115,2.05,9.116,9.116,0,0,1-1.174-.07,14.215,14.215,0,0,0,7.547,2.16,13.726,13.726,0,0,0,14.008-13.65l-0.016-.62a9.9,9.9,0,0,0,2.461-2.48,9.888,9.888,0,0,1-2.827.75A4.82,4.82,0,0,0,911.338,3063.35Z" transform="translate(-888 -3063)"/>
</svg>
