<svg xmlns="http://www.w3.org/2000/svg" width="22.031" height="18" viewBox="0 0 22.031 18">
  <metadata><?xpacket begin="﻿" id="W5M0MpCehiHzreSzNTczkc9d"?>
<x:xmpmeta xmlns:x="adobe:ns:meta/" x:xmptk="Adobe XMP Core 5.6-c142 79.160924, 2017/07/13-01:06:39        ">
   <rdf:RDF xmlns:rdf="http://www.w3.org/1999/02/22-rdf-syntax-ns#">
      <rdf:Description rdf:about=""/>
   </rdf:RDF>
</x:xmpmeta>
                                                                                                    
                                                                                                    
                                                                                                    
                                                                                                    
                                                                                                    
                                                                                                    
                                                                                                    
                                                                                                    
                                                                                                    
                                                                                                    
                                                                                                    
                                                                                                    
                                                                                                    
                                                                                                    
                                                                                                    
                                                                                                    
                                                                                                    
                                                                                                    
                                                                                                    
                                                                                                    
                           
<?xpacket end="w"?></metadata>
<defs>
    <style>
      .cls-1 {
        fill: #fff;
        fill-rule: evenodd;
      }
    </style>
  </defs>
  <path id="volume" class="cls-1" d="M909.334,580.136l-6.028,4.016v9.692l6.028,4.016a0.721,0.721,0,0,0,1.148-.554V580.69A0.721,0.721,0,0,0,909.334,580.136Zm8.521,1.953a0.735,0.735,0,0,0-1.015,0,0.676,0.676,0,0,0,0,.979,8.791,8.791,0,0,1,0,12.729,0.676,0.676,0,0,0,0,.979,0.735,0.735,0,0,0,1.015,0A10.142,10.142,0,0,0,917.855,582.089Zm-2.031,1.958a0.735,0.735,0,0,0-1.015,0,0.676,0.676,0,0,0,0,.979,6.087,6.087,0,0,1,0,8.813,0.676,0.676,0,0,0,0,.979,0.735,0.735,0,0,0,1.015,0A7.44,7.44,0,0,0,915.824,584.047Zm-2.028,1.959a0.735,0.735,0,0,0-1.015,0,0.676,0.676,0,0,0,0,.979,3.38,3.38,0,0,1,0,4.9,0.674,0.674,0,0,0,0,.979,0.734,0.734,0,0,0,1.014,0A4.731,4.731,0,0,0,913.8,586.006Zm-14.079-1.854a0.7,0.7,0,0,0-.717.692v8.308a0.7,0.7,0,0,0,.717.692h2.153v-9.692h-2.153Z" transform="translate(-899 -580)"/>
</svg>
