<svg xmlns="http://www.w3.org/2000/svg" width="22" height="16" viewBox="0 0 22 16">
  <metadata><?xpacket begin="﻿" id="W5M0MpCehiHzreSzNTczkc9d"?>
<x:xmpmeta xmlns:x="adobe:ns:meta/" x:xmptk="Adobe XMP Core 5.6-c142 79.160924, 2017/07/13-01:06:39        ">
   <rdf:RDF xmlns:rdf="http://www.w3.org/1999/02/22-rdf-syntax-ns#">
      <rdf:Description rdf:about=""/>
   </rdf:RDF>
</x:xmpmeta>
                                                                                                    
                                                                                                    
                                                                                                    
                                                                                                    
                                                                                                    
                                                                                                    
                                                                                                    
                                                                                                    
                                                                                                    
                                                                                                    
                                                                                                    
                                                                                                    
                                                                                                    
                                                                                                    
                                                                                                    
                                                                                                    
                                                                                                    
                                                                                                    
                                                                                                    
                                                                                                    
                           
<?xpacket end="w"?></metadata>
<defs>
    <style>
      .cls-1 {
        fill: #30333c;
        fill-rule: evenodd;
      }
    </style>
  </defs>
  <path id="youtube" class="cls-1" d="M1149.14,3064.37c-0.79-.97-2.26-1.37-5.06-1.37h-10.16c-2.87,0-4.36.42-5.15,1.46-0.77,1.01-.77,2.51-0.77,4.57v3.94c0,4,.91,6.03,5.92,6.03h10.16c2.43,0,3.78-.35,4.65-1.21,0.89-.89,1.27-2.33,1.27-4.82v-3.94C1150,3066.85,1149.94,3065.35,1149.14,3064.37Zm-7.02,7.17-4.61,2.5a0.764,0.764,0,0,1-.33.08,0.7,0.7,0,0,1-.37-0.11,0.735,0.735,0,0,1-.34-0.62v-4.97a0.739,0.739,0,0,1,.34-0.63,0.726,0.726,0,0,1,.7-0.03l4.61,2.48a0.732,0.732,0,0,1,.38.65A0.7,0.7,0,0,1,1142.12,3071.54Z" transform="translate(-1128 -3063)"/>
</svg>
